<mxfile host="app.diagrams.net" modified="2021-07-08T09:11:08.592Z" agent="5.0 (Windows NT 10.0; Win64; x64) AppleWebKit/537.36 (KHTML, like Gecko) Chrome/84.0.4147.89 Safari/537.36" etag="mH4k9RLI7Qk_JY_eDbG4" version="14.8.5" type="github" pages="2">
  <diagram id="X_aNnjIEqJzPzpeZQzH7" name="Page-1">
    <mxGraphModel dx="1422" dy="762" grid="1" gridSize="10" guides="1" tooltips="1" connect="1" arrows="1" fold="1" page="1" pageScale="1" pageWidth="850" pageHeight="1100" math="0" shadow="0">
      <root>
        <mxCell id="0" />
        <mxCell id="1" parent="0" />
        <mxCell id="ou5YQ9gsOctYAgulTyBN-17" value="" style="shape=card;whiteSpace=wrap;html=1;size=20;" vertex="1" parent="1">
          <mxGeometry x="10" y="430" width="490" height="100" as="geometry" />
        </mxCell>
        <mxCell id="ou5YQ9gsOctYAgulTyBN-3" style="edgeStyle=orthogonalEdgeStyle;rounded=0;orthogonalLoop=1;jettySize=auto;html=1;exitX=0.5;exitY=1;exitDx=0;exitDy=0;" edge="1" parent="1" source="ou5YQ9gsOctYAgulTyBN-1" target="ou5YQ9gsOctYAgulTyBN-2">
          <mxGeometry relative="1" as="geometry" />
        </mxCell>
        <mxCell id="ou5YQ9gsOctYAgulTyBN-1" value="Start" style="ellipse;whiteSpace=wrap;html=1;aspect=fixed;" vertex="1" parent="1">
          <mxGeometry x="320" y="120" width="40" height="40" as="geometry" />
        </mxCell>
        <mxCell id="ou5YQ9gsOctYAgulTyBN-5" value="Y" style="edgeStyle=orthogonalEdgeStyle;rounded=0;orthogonalLoop=1;jettySize=auto;html=1;exitX=0;exitY=0.5;exitDx=0;exitDy=0;" edge="1" parent="1" source="ou5YQ9gsOctYAgulTyBN-2" target="ou5YQ9gsOctYAgulTyBN-4">
          <mxGeometry relative="1" as="geometry" />
        </mxCell>
        <mxCell id="ou5YQ9gsOctYAgulTyBN-7" style="edgeStyle=orthogonalEdgeStyle;rounded=0;orthogonalLoop=1;jettySize=auto;html=1;exitX=0.5;exitY=1;exitDx=0;exitDy=0;" edge="1" parent="1">
          <mxGeometry relative="1" as="geometry">
            <mxPoint x="340" y="220" as="sourcePoint" />
            <mxPoint x="340" y="360" as="targetPoint" />
          </mxGeometry>
        </mxCell>
        <mxCell id="ou5YQ9gsOctYAgulTyBN-2" value="Is there&lt;br&gt;delete facility&lt;br&gt;?" style="rhombus;whiteSpace=wrap;html=1;" vertex="1" parent="1">
          <mxGeometry x="280" y="190" width="120" height="60" as="geometry" />
        </mxCell>
        <mxCell id="ou5YQ9gsOctYAgulTyBN-8" style="edgeStyle=orthogonalEdgeStyle;rounded=0;orthogonalLoop=1;jettySize=auto;html=1;exitX=0.5;exitY=1;exitDx=0;exitDy=0;entryX=0;entryY=0.5;entryDx=0;entryDy=0;" edge="1" parent="1" source="ou5YQ9gsOctYAgulTyBN-4" target="ou5YQ9gsOctYAgulTyBN-9">
          <mxGeometry relative="1" as="geometry">
            <mxPoint x="280" y="390" as="targetPoint" />
          </mxGeometry>
        </mxCell>
        <mxCell id="ou5YQ9gsOctYAgulTyBN-4" value="Calls API&lt;br&gt;updateGuarantorCotnract&lt;br&gt;&amp;lt;E = Delete&amp;gt; by number of deleted facility" style="rounded=0;whiteSpace=wrap;html=1;" vertex="1" parent="1">
          <mxGeometry x="40" y="250" width="240" height="60" as="geometry" />
        </mxCell>
        <mxCell id="ou5YQ9gsOctYAgulTyBN-14" value="yes&lt;br&gt;(at least 1 param is counted)" style="edgeStyle=orthogonalEdgeStyle;rounded=0;orthogonalLoop=1;jettySize=auto;html=1;exitX=0.5;exitY=1;exitDx=0;exitDy=0;entryX=0.5;entryY=0;entryDx=0;entryDy=0;" edge="1" parent="1" source="ou5YQ9gsOctYAgulTyBN-9" target="ou5YQ9gsOctYAgulTyBN-13">
          <mxGeometry relative="1" as="geometry" />
        </mxCell>
        <mxCell id="ou5YQ9gsOctYAgulTyBN-16" value="no" style="edgeStyle=orthogonalEdgeStyle;rounded=0;orthogonalLoop=1;jettySize=auto;html=1;exitX=1;exitY=0.5;exitDx=0;exitDy=0;entryX=1;entryY=0.5;entryDx=0;entryDy=0;" edge="1" parent="1" source="ou5YQ9gsOctYAgulTyBN-9" target="ou5YQ9gsOctYAgulTyBN-15">
          <mxGeometry x="-0.4167" relative="1" as="geometry">
            <Array as="points">
              <mxPoint x="520" y="360" />
              <mxPoint x="520" y="600" />
            </Array>
            <mxPoint as="offset" />
          </mxGeometry>
        </mxCell>
        <mxCell id="ou5YQ9gsOctYAgulTyBN-9" value="Is [GuarantorCIF], [GuarantorLimitAmt], [GuarantorBookDate] changed?" style="rhombus;whiteSpace=wrap;html=1;" vertex="1" parent="1">
          <mxGeometry x="240" y="330" width="200" height="60" as="geometry" />
        </mxCell>
        <mxCell id="ou5YQ9gsOctYAgulTyBN-19" style="edgeStyle=orthogonalEdgeStyle;rounded=0;orthogonalLoop=1;jettySize=auto;html=1;" edge="1" parent="1" source="ou5YQ9gsOctYAgulTyBN-13" target="ou5YQ9gsOctYAgulTyBN-15">
          <mxGeometry relative="1" as="geometry" />
        </mxCell>
        <mxCell id="ou5YQ9gsOctYAgulTyBN-13" value="Calls API&lt;br&gt;updateGuarantorCotnract&lt;br&gt;" style="rounded=0;whiteSpace=wrap;html=1;" vertex="1" parent="1">
          <mxGeometry x="220" y="450" width="240" height="60" as="geometry" />
        </mxCell>
        <mxCell id="ou5YQ9gsOctYAgulTyBN-15" value="Start" style="ellipse;whiteSpace=wrap;html=1;aspect=fixed;" vertex="1" parent="1">
          <mxGeometry x="320" y="580" width="40" height="40" as="geometry" />
        </mxCell>
        <mxCell id="ou5YQ9gsOctYAgulTyBN-18" value="Loop by existing mapped facility&lt;br&gt;and guarantorBookNo" style="text;html=1;align=center;verticalAlign=middle;resizable=0;points=[];autosize=1;strokeColor=none;" vertex="1" parent="1">
          <mxGeometry x="20" y="440" width="190" height="30" as="geometry" />
        </mxCell>
      </root>
    </mxGraphModel>
  </diagram>
  <diagram id="2GwnNGnKKbk-8WQTdAvm" name="Page-2">
    <mxGraphModel dx="1292" dy="549" grid="1" gridSize="10" guides="1" tooltips="1" connect="1" arrows="1" fold="1" page="1" pageScale="1" pageWidth="850" pageHeight="1100" math="0" shadow="0">
      <root>
        <mxCell id="z6gLF2LywUYehcaze8H_-0" />
        <mxCell id="z6gLF2LywUYehcaze8H_-1" parent="z6gLF2LywUYehcaze8H_-0" />
        <mxCell id="z6gLF2LywUYehcaze8H_-5" value="1.registerCollateral" style="edgeStyle=orthogonalEdgeStyle;rounded=0;orthogonalLoop=1;jettySize=auto;html=1;exitX=1;exitY=0.25;exitDx=0;exitDy=0;entryX=0;entryY=0.25;entryDx=0;entryDy=0;" edge="1" parent="z6gLF2LywUYehcaze8H_-1" source="z6gLF2LywUYehcaze8H_-3" target="z6gLF2LywUYehcaze8H_-4">
          <mxGeometry relative="1" as="geometry" />
        </mxCell>
        <mxCell id="z6gLF2LywUYehcaze8H_-3" value="SR" style="rounded=0;whiteSpace=wrap;html=1;" vertex="1" parent="z6gLF2LywUYehcaze8H_-1">
          <mxGeometry x="200" y="320" width="120" height="240" as="geometry" />
        </mxCell>
        <mxCell id="z6gLF2LywUYehcaze8H_-6" style="edgeStyle=orthogonalEdgeStyle;rounded=0;orthogonalLoop=1;jettySize=auto;html=1;exitX=1;exitY=0.25;exitDx=0;exitDy=0;entryX=1;entryY=0.125;entryDx=0;entryDy=0;entryPerimeter=0;" edge="1" parent="z6gLF2LywUYehcaze8H_-1" source="z6gLF2LywUYehcaze8H_-4" target="z6gLF2LywUYehcaze8H_-4">
          <mxGeometry relative="1" as="geometry">
            <mxPoint x="730" y="360" as="targetPoint" />
            <Array as="points">
              <mxPoint x="670" y="380" />
              <mxPoint x="670" y="350" />
            </Array>
          </mxGeometry>
        </mxCell>
        <mxCell id="z6gLF2LywUYehcaze8H_-4" value="LAL" style="rounded=0;whiteSpace=wrap;html=1;" vertex="1" parent="z6gLF2LywUYehcaze8H_-1">
          <mxGeometry x="520" y="320" width="120" height="240" as="geometry" />
        </mxCell>
        <mxCell id="z6gLF2LywUYehcaze8H_-7" style="edgeStyle=orthogonalEdgeStyle;rounded=0;orthogonalLoop=1;jettySize=auto;html=1;exitX=1;exitY=0.25;exitDx=0;exitDy=0;entryX=1;entryY=0.125;entryDx=0;entryDy=0;entryPerimeter=0;" edge="1" parent="z6gLF2LywUYehcaze8H_-1">
          <mxGeometry relative="1" as="geometry">
            <mxPoint x="640" y="410" as="targetPoint" />
            <mxPoint x="640" y="440" as="sourcePoint" />
            <Array as="points">
              <mxPoint x="670" y="440" />
              <mxPoint x="670" y="410" />
            </Array>
          </mxGeometry>
        </mxCell>
        <mxCell id="z6gLF2LywUYehcaze8H_-8" style="edgeStyle=orthogonalEdgeStyle;rounded=0;orthogonalLoop=1;jettySize=auto;html=1;exitX=1;exitY=0.25;exitDx=0;exitDy=0;entryX=1;entryY=0.125;entryDx=0;entryDy=0;entryPerimeter=0;" edge="1" parent="z6gLF2LywUYehcaze8H_-1">
          <mxGeometry relative="1" as="geometry">
            <mxPoint x="640" y="470" as="targetPoint" />
            <mxPoint x="640" y="500" as="sourcePoint" />
            <Array as="points">
              <mxPoint x="670" y="500" />
              <mxPoint x="670" y="470" />
            </Array>
          </mxGeometry>
        </mxCell>
        <mxCell id="z6gLF2LywUYehcaze8H_-13" style="edgeStyle=orthogonalEdgeStyle;rounded=0;orthogonalLoop=1;jettySize=auto;html=1;exitX=0.5;exitY=1;exitDx=0;exitDy=0;entryX=0.5;entryY=0;entryDx=0;entryDy=0;startArrow=ERone;startFill=0;endArrow=ERzeroToMany;endFill=1;" edge="1" parent="z6gLF2LywUYehcaze8H_-1" source="z6gLF2LywUYehcaze8H_-9" target="z6gLF2LywUYehcaze8H_-11">
          <mxGeometry relative="1" as="geometry" />
        </mxCell>
        <mxCell id="z6gLF2LywUYehcaze8H_-9" value="Primary Contract" style="rounded=0;whiteSpace=wrap;html=1;" vertex="1" parent="z6gLF2LywUYehcaze8H_-1">
          <mxGeometry x="830" y="320" width="120" height="60" as="geometry" />
        </mxCell>
        <mxCell id="z6gLF2LywUYehcaze8H_-10" value="Collateral" style="rounded=0;whiteSpace=wrap;html=1;" vertex="1" parent="z6gLF2LywUYehcaze8H_-1">
          <mxGeometry x="830" y="520" width="120" height="60" as="geometry" />
        </mxCell>
        <mxCell id="z6gLF2LywUYehcaze8H_-12" style="edgeStyle=orthogonalEdgeStyle;rounded=0;orthogonalLoop=1;jettySize=auto;html=1;exitX=0.5;exitY=1;exitDx=0;exitDy=0;entryX=0.5;entryY=0;entryDx=0;entryDy=0;endArrow=ERzeroToMany;endFill=1;startArrow=ERone;startFill=0;" edge="1" parent="z6gLF2LywUYehcaze8H_-1" source="z6gLF2LywUYehcaze8H_-11" target="z6gLF2LywUYehcaze8H_-10">
          <mxGeometry relative="1" as="geometry" />
        </mxCell>
        <mxCell id="z6gLF2LywUYehcaze8H_-11" value="Agreement Contract" style="rounded=0;whiteSpace=wrap;html=1;" vertex="1" parent="z6gLF2LywUYehcaze8H_-1">
          <mxGeometry x="830" y="420" width="120" height="60" as="geometry" />
        </mxCell>
        <mxCell id="z6gLF2LywUYehcaze8H_-14" value="Fac1" style="text;html=1;align=center;verticalAlign=middle;resizable=0;points=[];autosize=1;strokeColor=none;" vertex="1" parent="z6gLF2LywUYehcaze8H_-1">
          <mxGeometry x="910" y="300" width="40" height="20" as="geometry" />
        </mxCell>
        <mxCell id="z6gLF2LywUYehcaze8H_-15" value="Coll1" style="rounded=0;whiteSpace=wrap;html=1;fillColor=#fff2cc;strokeColor=#d6b656;" vertex="1" parent="z6gLF2LywUYehcaze8H_-1">
          <mxGeometry x="40" y="320" width="40" height="40" as="geometry" />
        </mxCell>
        <mxCell id="z6gLF2LywUYehcaze8H_-16" value="&lt;span&gt;Coll2&lt;/span&gt;" style="rounded=0;whiteSpace=wrap;html=1;" vertex="1" parent="z6gLF2LywUYehcaze8H_-1">
          <mxGeometry x="40" y="370" width="40" height="40" as="geometry" />
        </mxCell>
        <mxCell id="z6gLF2LywUYehcaze8H_-17" value="&lt;span style=&quot;color: rgb(0 , 0 , 0) ; font-family: &amp;#34;helvetica&amp;#34; ; font-size: 12px ; font-style: normal ; font-weight: 400 ; letter-spacing: normal ; text-align: center ; text-indent: 0px ; text-transform: none ; word-spacing: 0px ; background-color: rgb(248 , 249 , 250) ; display: inline ; float: none&quot;&gt;Coll3&lt;/span&gt;" style="rounded=0;whiteSpace=wrap;html=1;" vertex="1" parent="z6gLF2LywUYehcaze8H_-1">
          <mxGeometry x="40" y="420" width="40" height="40" as="geometry" />
        </mxCell>
        <mxCell id="z6gLF2LywUYehcaze8H_-18" value="Collateral" style="rounded=0;whiteSpace=wrap;html=1;" vertex="1" parent="z6gLF2LywUYehcaze8H_-1">
          <mxGeometry x="840" y="530" width="120" height="60" as="geometry" />
        </mxCell>
        <mxCell id="z6gLF2LywUYehcaze8H_-19" value="Collateral" style="rounded=0;whiteSpace=wrap;html=1;" vertex="1" parent="z6gLF2LywUYehcaze8H_-1">
          <mxGeometry x="850" y="540" width="120" height="60" as="geometry" />
        </mxCell>
        <mxCell id="z6gLF2LywUYehcaze8H_-20" value="Fac" style="rounded=0;whiteSpace=wrap;html=1;" vertex="1" parent="z6gLF2LywUYehcaze8H_-1">
          <mxGeometry x="100" y="320" width="40" height="140" as="geometry" />
        </mxCell>
        <mxCell id="z6gLF2LywUYehcaze8H_-21" value="2.createPrimaryContract" style="edgeStyle=orthogonalEdgeStyle;rounded=0;orthogonalLoop=1;jettySize=auto;html=1;exitX=1;exitY=0.25;exitDx=0;exitDy=0;entryX=0;entryY=0.25;entryDx=0;entryDy=0;" edge="1" parent="z6gLF2LywUYehcaze8H_-1">
          <mxGeometry relative="1" as="geometry">
            <mxPoint x="320" y="430" as="sourcePoint" />
            <mxPoint x="520" y="430" as="targetPoint" />
          </mxGeometry>
        </mxCell>
        <mxCell id="z6gLF2LywUYehcaze8H_-22" value="3.BindAgreementContract" style="edgeStyle=orthogonalEdgeStyle;rounded=0;orthogonalLoop=1;jettySize=auto;html=1;exitX=1;exitY=0.25;exitDx=0;exitDy=0;entryX=0;entryY=0.25;entryDx=0;entryDy=0;" edge="1" parent="z6gLF2LywUYehcaze8H_-1">
          <mxGeometry relative="1" as="geometry">
            <mxPoint x="320" y="480" as="sourcePoint" />
            <mxPoint x="520" y="480" as="targetPoint" />
          </mxGeometry>
        </mxCell>
        <mxCell id="z6gLF2LywUYehcaze8H_-23" value="1.registerCollateral" style="edgeStyle=orthogonalEdgeStyle;rounded=0;orthogonalLoop=1;jettySize=auto;html=1;entryX=1;entryY=0.333;entryDx=0;entryDy=0;entryPerimeter=0;exitX=-0.017;exitY=0.333;exitDx=0;exitDy=0;exitPerimeter=0;dashed=1;" edge="1" parent="z6gLF2LywUYehcaze8H_-1" source="z6gLF2LywUYehcaze8H_-4" target="z6gLF2LywUYehcaze8H_-3">
          <mxGeometry relative="1" as="geometry">
            <mxPoint x="510" y="240" as="sourcePoint" />
            <mxPoint x="530" y="390" as="targetPoint" />
          </mxGeometry>
        </mxCell>
        <mxCell id="z6gLF2LywUYehcaze8H_-24" value="2.createPrimaryContract" style="edgeStyle=orthogonalEdgeStyle;rounded=0;orthogonalLoop=1;jettySize=auto;html=1;entryX=1;entryY=0.333;entryDx=0;entryDy=0;entryPerimeter=0;exitX=-0.017;exitY=0.333;exitDx=0;exitDy=0;exitPerimeter=0;dashed=1;" edge="1" parent="z6gLF2LywUYehcaze8H_-1">
          <mxGeometry relative="1" as="geometry">
            <mxPoint x="517.96" y="449.50000000000006" as="sourcePoint" />
            <mxPoint x="320" y="449.50000000000006" as="targetPoint" />
          </mxGeometry>
        </mxCell>
        <mxCell id="z6gLF2LywUYehcaze8H_-25" value="registerCollateral" style="text;html=1;align=center;verticalAlign=middle;resizable=0;points=[];autosize=1;strokeColor=none;" vertex="1" parent="z6gLF2LywUYehcaze8H_-1">
          <mxGeometry x="650" y="320" width="110" height="20" as="geometry" />
        </mxCell>
        <mxCell id="z6gLF2LywUYehcaze8H_-26" value="createPrimaryContract" style="text;html=1;align=center;verticalAlign=middle;resizable=0;points=[];autosize=1;strokeColor=none;" vertex="1" parent="z6gLF2LywUYehcaze8H_-1">
          <mxGeometry x="640" y="390" width="140" height="20" as="geometry" />
        </mxCell>
        <mxCell id="z6gLF2LywUYehcaze8H_-29" value="createAgreementContract" style="text;html=1;align=center;verticalAlign=middle;resizable=0;points=[];autosize=1;strokeColor=none;" vertex="1" parent="z6gLF2LywUYehcaze8H_-1">
          <mxGeometry x="650" y="450" width="150" height="20" as="geometry" />
        </mxCell>
        <mxCell id="z6gLF2LywUYehcaze8H_-31" style="edgeStyle=orthogonalEdgeStyle;rounded=0;orthogonalLoop=1;jettySize=auto;html=1;exitX=0.5;exitY=1;exitDx=0;exitDy=0;entryX=0.75;entryY=0;entryDx=0;entryDy=0;startArrow=ERone;startFill=0;endArrow=ERzeroToMany;endFill=1;" edge="1" parent="z6gLF2LywUYehcaze8H_-1" source="z6gLF2LywUYehcaze8H_-30" target="z6gLF2LywUYehcaze8H_-11">
          <mxGeometry relative="1" as="geometry" />
        </mxCell>
        <mxCell id="z6gLF2LywUYehcaze8H_-30" value="Primary Contract" style="rounded=0;whiteSpace=wrap;html=1;" vertex="1" parent="z6gLF2LywUYehcaze8H_-1">
          <mxGeometry x="1000" y="320" width="120" height="60" as="geometry" />
        </mxCell>
        <mxCell id="z6gLF2LywUYehcaze8H_-32" value="1.requestCollateralBooking" style="edgeStyle=orthogonalEdgeStyle;rounded=0;orthogonalLoop=1;jettySize=auto;html=1;exitX=1;exitY=0.25;exitDx=0;exitDy=0;entryX=0;entryY=0.25;entryDx=0;entryDy=0;" edge="1" parent="z6gLF2LywUYehcaze8H_-1" source="z6gLF2LywUYehcaze8H_-33" target="z6gLF2LywUYehcaze8H_-35">
          <mxGeometry relative="1" as="geometry" />
        </mxCell>
        <mxCell id="z6gLF2LywUYehcaze8H_-33" value="SR" style="rounded=0;whiteSpace=wrap;html=1;" vertex="1" parent="z6gLF2LywUYehcaze8H_-1">
          <mxGeometry x="200" y="600" width="120" height="240" as="geometry" />
        </mxCell>
        <mxCell id="z6gLF2LywUYehcaze8H_-34" style="edgeStyle=orthogonalEdgeStyle;rounded=0;orthogonalLoop=1;jettySize=auto;html=1;exitX=1;exitY=0.25;exitDx=0;exitDy=0;entryX=1;entryY=0.125;entryDx=0;entryDy=0;entryPerimeter=0;" edge="1" parent="z6gLF2LywUYehcaze8H_-1" source="z6gLF2LywUYehcaze8H_-35" target="z6gLF2LywUYehcaze8H_-35">
          <mxGeometry relative="1" as="geometry">
            <mxPoint x="730" y="640" as="targetPoint" />
            <Array as="points">
              <mxPoint x="670" y="660" />
              <mxPoint x="670" y="630" />
            </Array>
          </mxGeometry>
        </mxCell>
        <mxCell id="z6gLF2LywUYehcaze8H_-35" value="LAL" style="rounded=0;whiteSpace=wrap;html=1;" vertex="1" parent="z6gLF2LywUYehcaze8H_-1">
          <mxGeometry x="520" y="600" width="120" height="240" as="geometry" />
        </mxCell>
        <mxCell id="z6gLF2LywUYehcaze8H_-36" style="edgeStyle=orthogonalEdgeStyle;rounded=0;orthogonalLoop=1;jettySize=auto;html=1;exitX=1;exitY=0.25;exitDx=0;exitDy=0;entryX=1;entryY=0.125;entryDx=0;entryDy=0;entryPerimeter=0;" edge="1" parent="z6gLF2LywUYehcaze8H_-1">
          <mxGeometry relative="1" as="geometry">
            <mxPoint x="640" y="690.0000000000001" as="targetPoint" />
            <mxPoint x="640" y="720.0000000000001" as="sourcePoint" />
            <Array as="points">
              <mxPoint x="670" y="720" />
              <mxPoint x="670" y="690" />
            </Array>
          </mxGeometry>
        </mxCell>
        <mxCell id="z6gLF2LywUYehcaze8H_-37" style="edgeStyle=orthogonalEdgeStyle;rounded=0;orthogonalLoop=1;jettySize=auto;html=1;exitX=1;exitY=0.25;exitDx=0;exitDy=0;entryX=1;entryY=0.125;entryDx=0;entryDy=0;entryPerimeter=0;" edge="1" parent="z6gLF2LywUYehcaze8H_-1">
          <mxGeometry relative="1" as="geometry">
            <mxPoint x="640" y="750.0000000000001" as="targetPoint" />
            <mxPoint x="640" y="780" as="sourcePoint" />
            <Array as="points">
              <mxPoint x="670" y="780" />
              <mxPoint x="670" y="750" />
            </Array>
          </mxGeometry>
        </mxCell>
        <mxCell id="z6gLF2LywUYehcaze8H_-40" value="1.requestCollateralBooking" style="edgeStyle=orthogonalEdgeStyle;rounded=0;orthogonalLoop=1;jettySize=auto;html=1;entryX=1;entryY=0.333;entryDx=0;entryDy=0;entryPerimeter=0;exitX=-0.017;exitY=0.333;exitDx=0;exitDy=0;exitPerimeter=0;dashed=1;" edge="1" parent="z6gLF2LywUYehcaze8H_-1" source="z6gLF2LywUYehcaze8H_-35" target="z6gLF2LywUYehcaze8H_-33">
          <mxGeometry relative="1" as="geometry">
            <mxPoint x="510" y="520" as="sourcePoint" />
            <mxPoint x="530" y="670" as="targetPoint" />
          </mxGeometry>
        </mxCell>
        <mxCell id="z6gLF2LywUYehcaze8H_-42" value="registerCollateral" style="text;html=1;align=center;verticalAlign=middle;resizable=0;points=[];autosize=1;strokeColor=none;" vertex="1" parent="z6gLF2LywUYehcaze8H_-1">
          <mxGeometry x="650" y="600" width="110" height="20" as="geometry" />
        </mxCell>
        <mxCell id="z6gLF2LywUYehcaze8H_-43" value="createPrimaryContract" style="text;html=1;align=center;verticalAlign=middle;resizable=0;points=[];autosize=1;strokeColor=none;" vertex="1" parent="z6gLF2LywUYehcaze8H_-1">
          <mxGeometry x="640" y="670" width="140" height="20" as="geometry" />
        </mxCell>
        <mxCell id="z6gLF2LywUYehcaze8H_-44" value="createAgreementContract" style="text;html=1;align=center;verticalAlign=middle;resizable=0;points=[];autosize=1;strokeColor=none;" vertex="1" parent="z6gLF2LywUYehcaze8H_-1">
          <mxGeometry x="650" y="730" width="150" height="20" as="geometry" />
        </mxCell>
        <mxCell id="z6gLF2LywUYehcaze8H_-45" value="Domain Model" style="text;html=1;align=center;verticalAlign=middle;resizable=0;points=[];autosize=1;strokeColor=none;" vertex="1" parent="z6gLF2LywUYehcaze8H_-1">
          <mxGeometry x="370" y="580" width="90" height="20" as="geometry" />
        </mxCell>
        <mxCell id="z6gLF2LywUYehcaze8H_-46" value="Anamic Model" style="text;html=1;align=center;verticalAlign=middle;resizable=0;points=[];autosize=1;strokeColor=none;" vertex="1" parent="z6gLF2LywUYehcaze8H_-1">
          <mxGeometry x="370" y="300" width="90" height="20" as="geometry" />
        </mxCell>
      </root>
    </mxGraphModel>
  </diagram>
</mxfile>
